<svg width="163" height="58" viewBox="0 0 163 58" fill="none" xmlns="http://www.w3.org/2000/svg">
<rect width="162.576" height="58" rx="6" fill="black"/>
<path d="M58.4144 17.6484C58.4144 18.55 58.1379 19.2721 57.5932 19.8107C56.967 20.4491 56.1513 20.7704 55.1518 20.7704C54.1965 20.7704 53.3809 20.4437 52.7118 19.7999C52.0413 19.1466 51.7067 18.3449 51.7067 17.3852C51.7067 16.4255 52.0413 15.6238 52.7118 14.9759C53.3809 14.3266 54.1965 14 55.1518 14C55.6274 14 56.0808 14.0958 56.5135 14.274C56.9449 14.4535 57.296 14.6965 57.5504 14.9961L56.9725 15.5657C56.5288 15.0542 55.9246 14.8018 55.1518 14.8018C54.4551 14.8018 53.8509 15.0393 53.338 15.5185C52.8307 15.999 52.5763 16.6212 52.5763 17.3852C52.5763 18.1491 52.8307 18.7768 53.338 19.2573C53.8509 19.7311 54.4551 19.974 55.1518 19.974C55.8914 19.974 56.5135 19.7311 57.0043 19.2519C57.3278 18.9347 57.5117 18.4974 57.5601 17.9386H55.1518V17.1584H58.3647C58.4034 17.3271 58.4144 17.4905 58.4144 17.6484Z" fill="white" stroke="white" stroke-width="0.4" stroke-miterlimit="10"/>
<path d="M63.5115 14.9434H60.4936V16.9951H63.2143V17.7752H60.4936V19.8269H63.5115V20.6219H59.6393V14.1484H63.5115V14.9434Z" fill="white" stroke="white" stroke-width="0.4" stroke-miterlimit="10"/>
<path d="M67.1087 20.6219H66.2544V14.9434H64.4033V14.1484H68.9612V14.9434H67.1087V20.6219Z" fill="white" stroke="white" stroke-width="0.4" stroke-miterlimit="10"/>
<path d="M72.2598 20.6219V14.1484H73.1127V20.6219H72.2598Z" fill="white" stroke="white" stroke-width="0.4" stroke-miterlimit="10"/>
<path d="M76.8938 20.6219H76.0463V14.9434H74.1883V14.1484H78.7518V14.9434H76.8938V20.6219Z" fill="white" stroke="white" stroke-width="0.4" stroke-miterlimit="10"/>
<path d="M87.3811 19.7891C86.7272 20.4437 85.9171 20.7704 84.9508 20.7704C83.9789 20.7704 83.1688 20.4437 82.5149 19.7891C81.8624 19.1358 81.5375 18.3341 81.5375 17.3852C81.5375 16.4363 81.8624 15.6346 82.5149 14.9813C83.1688 14.3266 83.9789 14 84.9508 14C85.9116 14 86.7217 14.3266 87.3756 14.9867C88.0337 15.6454 88.3585 16.4417 88.3585 17.3852C88.3585 18.3341 88.0337 19.1358 87.3811 19.7891ZM83.1467 19.2465C83.6388 19.7311 84.2374 19.974 84.9508 19.974C85.6586 19.974 86.2627 19.7311 86.7494 19.2465C87.2401 18.7619 87.489 18.1397 87.489 17.3852C87.489 16.6307 87.2401 16.0084 86.7494 15.5239C86.2627 15.0393 85.6586 14.7964 84.9508 14.7964C84.2374 14.7964 83.6388 15.0393 83.1467 15.5239C82.6559 16.0084 82.407 16.6307 82.407 17.3852C82.407 18.1397 82.6559 18.7619 83.1467 19.2465Z" fill="white" stroke="white" stroke-width="0.4" stroke-miterlimit="10"/>
<path d="M89.5571 20.6219V14.1484H90.594L93.8179 19.183H93.8552L93.8179 17.9385V14.1484H94.6709V20.6219H93.7805L90.4046 15.3389H90.3672L90.4046 16.5888V20.6219H89.5571Z" fill="white" stroke="white" stroke-width="0.4" stroke-miterlimit="10"/>
<path d="M81.3273 30.0757C78.7297 30.0757 76.6076 32.0058 76.6076 34.6689C76.6076 37.3104 78.7297 39.2608 81.3273 39.2608C83.9305 39.2608 86.0526 37.3104 86.0526 34.6689C86.0526 32.0058 83.9305 30.0757 81.3273 30.0757ZM81.3273 37.4521C79.902 37.4521 78.6758 36.3035 78.6758 34.6689C78.6758 33.0128 79.902 31.8844 81.3273 31.8844C82.7526 31.8844 83.9844 33.0128 83.9844 34.6689C83.9844 36.3035 82.7526 37.4521 81.3273 37.4521ZM71.0294 30.0757C68.4262 30.0757 66.3096 32.0058 66.3096 34.6689C66.3096 37.3104 68.4262 39.2608 71.0294 39.2608C73.6311 39.2608 75.7491 37.3104 75.7491 34.6689C75.7491 32.0058 73.6311 30.0757 71.0294 30.0757ZM71.0294 37.4521C69.6027 37.4521 68.3723 36.3035 68.3723 34.6689C68.3723 33.0128 69.6027 31.8844 71.0294 31.8844C72.4547 31.8844 73.6809 33.0128 73.6809 34.6689C73.6809 36.3035 72.4547 37.4521 71.0294 37.4521ZM58.7752 31.4835V33.4352H63.5489C63.4092 34.5258 63.036 35.3276 62.4636 35.8864C61.7669 36.5613 60.6816 37.3104 58.7752 37.3104C55.8375 37.3104 53.5371 34.9956 53.5371 32.1273C53.5371 29.2591 55.8375 26.9443 58.7752 26.9443C60.3637 26.9443 61.5194 27.5503 62.3724 28.3359L63.7811 26.9605C62.5881 25.8483 61.001 24.9939 58.7752 24.9939C54.7467 24.9939 51.3611 28.1941 51.3611 32.1273C51.3611 36.0605 54.7467 39.2608 58.7752 39.2608C60.9526 39.2608 62.588 38.5643 63.8737 37.2577C65.1912 35.9714 65.6018 34.1628 65.6018 32.7023C65.6018 32.2488 65.5631 31.8317 65.494 31.4835H58.7752ZM108.884 32.9966C108.495 31.9694 107.297 30.0757 104.855 30.0757C102.436 30.0757 100.422 31.937 100.422 34.6689C100.422 37.2415 102.415 39.2608 105.088 39.2608C107.248 39.2608 108.495 37.9745 109.008 37.2253L107.405 36.182C106.87 36.9459 106.141 37.4521 105.088 37.4521C104.041 37.4521 103.29 36.9837 102.809 36.0605L109.101 33.5189L108.884 32.9966ZM102.469 34.5258C102.415 32.755 103.878 31.8479 104.926 31.8479C105.747 31.8479 106.444 32.2488 106.676 32.8224L102.469 34.5258ZM97.3556 38.9814H99.4237V25.4838H97.3556V38.9814ZM93.9685 31.0988H93.8994C93.4349 30.5616 92.5488 30.0757 91.4262 30.0757C89.0705 30.0757 86.9166 32.0949 86.9166 34.6838C86.9166 37.2577 89.0705 39.2608 91.4262 39.2608C92.5488 39.2608 93.4349 38.7708 93.8994 38.2174H93.9685V38.8761C93.9685 40.6321 93.0077 41.5756 91.458 41.5756C90.1944 41.5756 89.4106 40.6848 89.0871 39.9357L87.2885 40.6686C87.8069 41.886 89.1797 43.3843 91.458 43.3843C93.8828 43.3843 95.9289 41.9913 95.9289 38.6021V30.3551H93.9685V31.0988ZM91.6032 37.4521C90.1778 37.4521 88.9848 36.2873 88.9848 34.6838C88.9848 33.0654 90.1778 31.8844 91.6032 31.8844C93.0077 31.8844 94.1151 33.0654 94.1151 34.6838C94.1151 36.2873 93.0077 37.4521 91.6032 37.4521ZM118.567 25.4838H113.62V38.9814H115.683V33.8672H118.567C120.857 33.8672 123.104 32.2488 123.104 29.6748C123.104 27.1022 120.852 25.4838 118.567 25.4838ZM118.621 31.9896H115.683V27.3613H118.621C120.161 27.3613 121.04 28.6099 121.04 29.6748C121.04 30.7195 120.161 31.9896 118.621 31.9896ZM131.371 30.0501C129.881 30.0501 128.331 30.6925 127.694 32.1165L129.524 32.8656C129.918 32.1165 130.642 31.8736 131.408 31.8736C132.478 31.8736 133.564 32.5012 133.58 33.6094V33.7511C133.207 33.5405 132.408 33.2287 131.425 33.2287C129.454 33.2287 127.445 34.2883 127.445 36.2657C127.445 38.0743 129.06 39.2392 130.875 39.2392C132.263 39.2392 133.029 38.6277 133.51 37.9164H133.58V38.9598H135.572V33.7821C135.572 31.389 133.742 30.0501 131.371 30.0501ZM131.122 37.4467C130.448 37.4467 129.507 37.1201 129.507 36.3035C129.507 35.2588 130.68 34.8579 131.695 34.8579C132.603 34.8579 133.029 35.0536 133.58 35.3114C133.418 36.5613 132.317 37.4467 131.122 37.4467ZM142.83 30.3456L140.459 36.1968H140.389L137.938 30.3456H135.713L139.396 38.5225L137.295 43.0725H139.45L145.125 30.3456H142.83ZM124.238 38.9814H126.306V25.4838H124.238V38.9814Z" fill="white"/>
<path d="M17.5129 14.7274C17.188 15.0595 17 15.5764 17 16.2459V40.1258C17 40.7953 17.188 41.3122 17.5129 41.6443L17.5931 41.7172L31.2988 28.3411V28.0252L17.5931 14.6492L17.5129 14.7274Z" fill="url(#paint0_linear)"/>
<path d="M35.8623 32.8021L31.2988 28.3412V28.0253L35.8678 23.5644L35.9701 23.6224L41.3811 26.6283C42.9253 27.4814 42.9253 28.8851 41.3811 29.7436L35.9701 32.7441L35.8623 32.8021Z" fill="url(#paint1_linear)"/>
<path d="M35.9702 32.744L31.2988 28.1832L17.5129 41.6443C18.0258 42.1707 18.8622 42.2342 19.8133 41.7078L35.9702 32.744Z" fill="url(#paint2_linear)"/>
<path d="M35.9702 23.6224L19.8133 14.6587C18.8622 14.1377 18.0258 14.2011 17.5129 14.7275L31.2988 28.1832L35.9702 23.6224Z" fill="url(#paint3_linear)"/>
<defs>
<linearGradient id="paint0_linear" x1="30.0819" y1="40.3745" x2="11.9654" y2="21.819" gradientUnits="userSpaceOnUse">
<stop stop-color="#00A0FF"/>
<stop offset="0.0066" stop-color="#00A1FF"/>
<stop offset="0.2601" stop-color="#00BEFF"/>
<stop offset="0.5122" stop-color="#00D2FF"/>
<stop offset="0.7604" stop-color="#00DFFF"/>
<stop offset="1" stop-color="#00E3FF"/>
</linearGradient>
<linearGradient id="paint1_linear" x1="43.3919" y1="28.1817" x2="16.6309" y2="28.1817" gradientUnits="userSpaceOnUse">
<stop stop-color="#FFE000"/>
<stop offset="0.4087" stop-color="#FFBD00"/>
<stop offset="0.7754" stop-color="#FFA500"/>
<stop offset="1" stop-color="#FF9C00"/>
</linearGradient>
<linearGradient id="paint2_linear" x1="33.43" y1="25.7039" x2="8.86255" y2="0.541095" gradientUnits="userSpaceOnUse">
<stop stop-color="#FF3A44"/>
<stop offset="1" stop-color="#C31162"/>
</linearGradient>
<linearGradient id="paint3_linear" x1="14.0427" y1="49.5891" x2="25.0132" y2="38.3529" gradientUnits="userSpaceOnUse">
<stop stop-color="#32A071"/>
<stop offset="0.0685" stop-color="#2DA771"/>
<stop offset="0.4762" stop-color="#15CF74"/>
<stop offset="0.8009" stop-color="#06E775"/>
<stop offset="1" stop-color="#00F076"/>
</linearGradient>
</defs>
</svg>
