<svg width="170" height="49" viewBox="0 0 170 49" fill="none" xmlns="http://www.w3.org/2000/svg">
  <path d="M168.873 43.3491C168.873 45.9603 166.714 48.0755 164.043 48.0755H5.97885C3.30935 48.0755 1.14252 45.9603 1.14252 43.3491V5.65718C1.14252 3.04714 3.30935 0.924561 5.97885 0.924561H164.042C166.714 0.924561 168.872 3.04714 168.872 5.65718L168.873 43.3491Z" fill="white"/>
  <path d="M163.534 0.981533C166.442 0.981533 168.809 3.28913 168.809 6.125V42.875C168.809 45.7109 166.442 48.0185 163.534 48.0185H6.48225C3.57366 48.0185 1.20689 45.7109 1.20689 42.875V6.125C1.20689 3.28913 3.57366 0.981533 6.48225 0.981533H163.534ZM163.534 3.8147e-06H6.48225C3.02869 3.8147e-06 0.200195 2.75779 0.200195 6.125V42.875C0.200195 46.2422 3.02869 49 6.48225 49H163.534C166.987 49 169.816 46.2422 169.816 42.875V6.125C169.816 2.75779 166.987 3.8147e-06 163.534 3.8147e-06Z" fill="white"/>
  <path d="M38.0533 24.2353C38.0169 20.2871 41.369 18.3663 41.5223 18.2769C39.6239 15.5782 36.6813 15.2095 35.6473 15.1801C33.176 14.9265 30.7787 16.6219 29.5198 16.6219C28.2358 16.6219 26.2971 15.2046 24.2077 15.2462C21.519 15.2867 19.0037 16.8044 17.6241 19.1613C14.7771 23.967 16.9004 31.0291 19.6281 34.9136C20.9925 36.816 22.5869 38.9402 24.6738 38.8655C26.7155 38.7834 27.4781 37.5964 29.942 37.5964C32.3832 37.5964 33.0993 38.8655 35.2277 38.8177C37.4189 38.7834 38.7984 36.9067 40.1151 34.9871C41.6919 32.8066 42.3251 30.6592 42.3503 30.5489C42.2988 30.5318 38.0948 28.9675 38.0533 24.2353Z" fill="black"/>
  <path d="M34.0328 12.6247C35.1309 11.2858 35.8823 9.46425 35.6737 7.61572C34.0843 7.68432 32.0967 8.6876 30.9521 9.99712C29.9394 11.1511 29.0348 13.0425 29.2685 14.8212C31.0539 14.951 32.887 13.9428 34.0328 12.6247Z" fill="black"/>
  <path d="M61.8272 12.2609C61.8272 13.7027 61.3836 14.7881 60.4979 15.517C59.6774 16.1895 58.5115 16.5264 57.0013 16.5264C56.2525 16.5264 55.6117 16.4945 55.0752 16.4308V8.55283C55.775 8.44258 56.5289 8.38623 57.343 8.38623C58.7816 8.38623 59.8659 8.69126 60.5971 9.30131C61.4163 9.99098 61.8272 10.9771 61.8272 12.2609ZM60.4388 12.2964C60.4388 11.3618 60.185 10.6451 59.6774 10.1453C59.1698 9.64675 58.4286 9.39686 57.4523 9.39686C57.0377 9.39686 56.6847 9.42381 56.3919 9.48016V15.4692C56.554 15.4937 56.8505 15.5047 57.2815 15.5047C58.2891 15.5047 59.0668 15.2315 59.6146 14.6852C60.1624 14.1388 60.4388 13.3426 60.4388 12.2964Z" fill="black"/>
  <path d="M69.1885 13.5201C69.1885 14.4083 68.9284 15.1359 68.4083 15.7068C67.863 16.2935 67.1405 16.5863 66.2384 16.5863C65.369 16.5863 64.6767 16.3058 64.1603 15.7423C63.6452 15.18 63.3876 14.4707 63.3876 13.6157C63.3876 12.7214 63.6527 11.9877 64.1855 11.418C64.7182 10.8484 65.4343 10.563 66.3364 10.563C67.2059 10.563 67.9044 10.8435 68.4334 11.4058C68.9359 11.9521 69.1885 12.6577 69.1885 13.5201ZM67.8228 13.5618C67.8228 13.0289 67.7047 12.572 67.4697 12.191C67.1933 11.7304 66.8 11.5001 66.2887 11.5001C65.7597 11.5001 65.3577 11.7304 65.0813 12.191C64.8451 12.572 64.7282 13.0363 64.7282 13.5851C64.7282 14.1179 64.8463 14.5749 65.0813 14.9558C65.3665 15.4164 65.7635 15.6467 66.2761 15.6467C66.7787 15.6467 67.1732 15.4128 67.4571 14.9436C67.7009 14.5553 67.8228 14.0947 67.8228 13.5618Z" fill="black"/>
  <path d="M79.0588 10.6807L77.2056 16.4553H75.9995L75.2318 13.9477C75.037 13.3218 74.8787 12.6995 74.7556 12.0821H74.7317C74.6174 12.7166 74.4591 13.3377 74.2556 13.9477L73.4401 16.4553H72.2202L70.4775 10.6807H71.8307L72.5004 13.4259C72.6624 14.0751 72.7956 14.6938 72.9024 15.2793H72.9263C73.0243 14.7967 73.1864 14.1817 73.415 13.4381L74.2556 10.6819H75.3285L76.1339 13.3793C76.3286 14.0372 76.4869 14.6705 76.6088 15.2805H76.6453C76.7345 14.6864 76.8689 14.0531 77.0473 13.3793L77.766 10.6819H79.0588V10.6807Z" fill="black"/>
  <path d="M85.8849 16.4553H84.5682V13.1478C84.5682 12.1286 84.1712 11.619 83.3746 11.619C82.9838 11.619 82.6685 11.7586 82.4235 12.0391C82.181 12.3197 82.0579 12.6504 82.0579 13.0289V16.454H80.7412V12.3307C80.7412 11.8235 80.7248 11.2735 80.6934 10.6782H81.8506L81.9121 11.581H81.9486C82.1019 11.3005 82.3305 11.0689 82.6308 10.884C82.9876 10.6684 83.3872 10.5593 83.8244 10.5593C84.3772 10.5593 84.837 10.7333 85.2027 11.0824C85.6575 11.5099 85.8849 12.1482 85.8849 12.9959V16.4553Z" fill="black"/>
  <path d="M89.5159 16.4553H88.2004V8.03101H89.5159V16.4553Z" fill="black"/>
  <path d="M97.268 13.5201C97.268 14.4083 97.0079 15.1359 96.4877 15.7068C95.9424 16.2935 95.2188 16.5863 94.3179 16.5863C93.4472 16.5863 92.7549 16.3058 92.2398 15.7423C91.7247 15.18 91.4671 14.4707 91.4671 13.6157C91.4671 12.7214 91.7322 11.9877 92.2649 11.418C92.7976 10.8484 93.5138 10.563 94.4146 10.563C95.2853 10.563 95.9826 10.8435 96.5129 11.4058C97.0154 11.9521 97.268 12.6577 97.268 13.5201ZM95.901 13.5618C95.901 13.0289 95.7829 12.572 95.5479 12.191C95.2728 11.7304 94.8783 11.5001 94.3682 11.5001C93.8379 11.5001 93.4359 11.7304 93.1607 12.191C92.9245 12.572 92.8077 13.0363 92.8077 13.5851C92.8077 14.1179 92.9258 14.5749 93.1607 14.9558C93.446 15.4164 93.843 15.6467 94.3556 15.6467C94.8582 15.6467 95.2514 15.4128 95.5354 14.9436C95.7804 14.5553 95.901 14.0947 95.901 13.5618Z" fill="black"/>
  <path d="M103.64 16.4552H102.458L102.36 15.7901H102.324C101.919 16.3205 101.342 16.5863 100.594 16.5863C100.035 16.5863 99.5822 16.4111 99.2418 16.0632C98.9327 15.7472 98.7781 15.354 98.7781 14.8872C98.7781 14.1816 99.0797 13.6439 99.6865 13.2715C100.292 12.8991 101.144 12.7165 102.241 12.7251V12.6173C102.241 11.8566 101.831 11.4768 101.011 11.4768C100.427 11.4768 99.9114 11.6202 99.4667 11.9044L99.199 11.0616C99.7493 10.7296 100.429 10.563 101.231 10.563C102.779 10.563 103.555 11.3592 103.555 12.9517V15.0783C103.555 15.6553 103.584 16.1147 103.64 16.4552ZM102.273 14.4707V13.5802C100.821 13.5557 100.095 13.944 100.095 14.7439C100.095 15.0453 100.178 15.2707 100.347 15.4213C100.517 15.572 100.733 15.6467 100.991 15.6467C101.28 15.6467 101.55 15.5573 101.796 15.3797C102.044 15.2008 102.196 14.9742 102.252 14.6961C102.266 14.6337 102.273 14.5577 102.273 14.4707Z" fill="black"/>
  <path d="M111.122 16.4553H109.954L109.892 15.528H109.856C109.483 16.2336 108.847 16.5864 107.954 16.5864C107.24 16.5864 106.646 16.3132 106.175 15.7669C105.704 15.2205 105.469 14.5113 105.469 13.6403C105.469 12.7056 105.724 11.9486 106.236 11.3704C106.733 10.8314 107.341 10.5619 108.064 10.5619C108.86 10.5619 109.416 10.8228 109.733 11.3459H109.758V8.03101H111.076V14.8996C111.076 15.4619 111.091 15.98 111.122 16.4553ZM109.758 14.02V13.0572C109.758 12.8906 109.745 12.7558 109.722 12.6529C109.647 12.3442 109.488 12.0845 109.245 11.8751C109 11.6656 108.705 11.5602 108.365 11.5602C107.873 11.5602 107.489 11.7501 107.206 12.1311C106.926 12.5121 106.784 12.9984 106.784 13.5925C106.784 14.1634 106.918 14.6264 107.189 14.9829C107.474 15.3626 107.858 15.5525 108.339 15.5525C108.772 15.5525 109.117 15.3945 109.38 15.0772C109.634 14.7844 109.758 14.4316 109.758 14.02Z" fill="black"/>
  <path d="M122.384 13.5201C122.384 14.4083 122.124 15.1359 121.603 15.7068C121.058 16.2935 120.337 16.5863 119.434 16.5863C118.565 16.5863 117.873 16.3058 117.355 15.7423C116.84 15.18 116.583 14.4707 116.583 13.6157C116.583 12.7214 116.848 11.9877 117.381 11.418C117.913 10.8484 118.629 10.563 119.533 10.563C120.401 10.563 121.101 10.8435 121.629 11.4058C122.131 11.9521 122.384 12.6577 122.384 13.5201ZM121.019 13.5618C121.019 13.0289 120.901 12.572 120.666 12.191C120.388 11.7304 119.996 11.5001 119.484 11.5001C118.956 11.5001 118.554 11.7304 118.276 12.191C118.04 12.572 117.923 13.0363 117.923 13.5851C117.923 14.1179 118.041 14.5749 118.276 14.9558C118.562 15.4164 118.959 15.6467 119.471 15.6467C119.974 15.6467 120.37 15.4128 120.654 14.9436C120.896 14.5553 121.019 14.0947 121.019 13.5618Z" fill="black"/>
  <path d="M129.463 16.4553H128.148V13.1478C128.148 12.1286 127.751 11.619 126.953 11.619C126.562 11.619 126.247 11.7586 126.003 12.0391C125.76 12.3197 125.638 12.6504 125.638 13.0289V16.454H124.32V12.3307C124.32 11.8235 124.305 11.2735 124.273 10.6782H125.429L125.491 11.581H125.527C125.682 11.3005 125.91 11.0689 126.209 10.884C126.567 10.6684 126.966 10.5593 127.404 10.5593C127.956 10.5593 128.416 10.7333 128.781 11.0824C129.237 11.5099 129.463 12.1482 129.463 12.9959V16.4553Z" fill="black"/>
  <path d="M138.325 11.6422H136.875V14.4475C136.875 15.1604 137.133 15.5169 137.643 15.5169C137.879 15.5169 138.075 15.4973 138.229 15.4569L138.263 16.4307C138.003 16.5263 137.662 16.5741 137.241 16.5741C136.721 16.5741 136.316 16.4197 136.023 16.111C135.729 15.8023 135.583 15.2829 135.583 14.554V11.6422H134.718V10.6806H135.583V9.62218L136.874 9.24243V10.6794H138.324V11.6422H138.325Z" fill="black"/>
  <path d="M145.296 16.4553H143.978V13.1723C143.978 12.1372 143.58 11.619 142.785 11.619C142.175 11.619 141.757 11.9192 141.529 12.5194C141.49 12.6456 141.467 12.7999 141.467 12.9812V16.4541H140.152V8.03101H141.467V11.5112H141.492C141.907 10.8779 142.501 10.5619 143.271 10.5619C143.817 10.5619 144.268 10.7358 144.626 11.0849C145.072 11.5198 145.296 12.1666 145.296 13.0217V16.4553Z" fill="black"/>
  <path d="M152.486 13.2948C152.486 13.5251 152.468 13.7186 152.437 13.8767H148.488C148.506 14.4475 148.694 14.8824 149.06 15.1837C149.394 15.4532 149.825 15.588 150.353 15.588C150.937 15.588 151.469 15.4973 151.949 15.3148L152.155 16.2066C151.594 16.4442 150.933 16.5631 150.168 16.5631C149.251 16.5631 148.528 16.2997 148.006 15.773C147.48 15.2462 147.22 14.5394 147.22 13.6525C147.22 12.7815 147.463 12.0563 147.952 11.4781C148.462 10.8607 149.151 10.552 150.022 10.552C150.874 10.552 151.521 10.8607 151.958 11.4781C152.311 11.9681 152.486 12.5745 152.486 13.2948ZM151.229 12.9628C151.24 12.5818 151.153 12.2535 150.974 11.9767C150.746 11.6202 150.398 11.4414 149.927 11.4414C149.497 11.4414 149.146 11.6153 148.879 11.9644C148.66 12.2425 148.531 12.5745 148.488 12.9628H151.229Z" fill="black"/>
  <path d="M67.6003 38.5923H64.747L63.184 33.8038H57.7513L56.2625 38.5923H53.4846L58.867 22.29H62.1915L67.6003 38.5923ZM62.7129 31.7948L61.2994 27.5379C61.1499 27.1031 60.8697 26.079 60.4564 24.4669H60.4061C60.2415 25.1602 59.9764 26.1843 59.6121 27.5379L58.2237 31.7948H62.7129Z" fill="black"/>
  <path d="M81.4422 32.5703C81.4422 34.5695 80.8881 36.1497 79.78 37.3098C78.7874 38.3425 77.5549 38.8582 76.0836 38.8582C74.4955 38.8582 73.3547 38.302 72.6599 37.1897H72.6096V43.3821H69.931V30.707C69.931 29.4502 69.8971 28.1603 69.8317 26.8373H72.1875L72.337 28.7005H72.3873C73.2806 27.2966 74.6362 26.5959 76.4555 26.5959C77.8778 26.5959 79.0651 27.1435 80.0149 28.2399C80.9673 29.3375 81.4422 30.7805 81.4422 32.5703ZM78.7133 32.6658C78.7133 31.5217 78.4494 30.5784 77.9192 29.8361C77.34 29.0619 76.5623 28.6748 75.5873 28.6748C74.9265 28.6748 74.3259 28.8904 73.7894 29.3154C73.2517 29.7442 72.8999 30.304 72.7353 30.9974C72.6524 31.3208 72.6109 31.5854 72.6109 31.7936V33.7536C72.6109 34.6087 72.8798 35.3302 73.4175 35.9194C73.9553 36.5086 74.6538 36.8026 75.5132 36.8026C76.5221 36.8026 77.3074 36.4229 77.869 35.6658C78.4319 34.9076 78.7133 33.908 78.7133 32.6658Z" fill="black"/>
  <path d="M95.3092 32.5703C95.3092 34.5695 94.7551 36.1497 93.6457 37.3098C92.6544 38.3425 91.4218 38.8582 89.9506 38.8582C88.3625 38.8582 87.2217 38.302 86.5281 37.1897H86.4779V43.3821H83.7992V30.707C83.7992 29.4502 83.7653 28.1603 83.7 26.8373H86.0557L86.2052 28.7005H86.2555C87.1475 27.2966 88.5032 26.5959 90.3238 26.5959C91.7448 26.5959 92.9321 27.1435 93.8844 28.2399C94.833 29.3375 95.3092 30.7805 95.3092 32.5703ZM92.5803 32.6658C92.5803 31.5217 92.3152 30.5784 91.7849 29.8361C91.2057 29.0619 90.4305 28.6748 89.4543 28.6748C88.7922 28.6748 88.1929 28.8904 87.6551 29.3154C87.1174 29.7442 86.7668 30.304 86.6023 30.9974C86.5206 31.3208 86.4779 31.5854 86.4779 31.7936V33.7536C86.4779 34.6087 86.7467 35.3302 87.282 35.9194C87.8197 36.5074 88.5183 36.8026 89.3802 36.8026C90.3891 36.8026 91.1743 36.4229 91.736 35.6658C92.2988 34.9076 92.5803 33.908 92.5803 32.6658Z" fill="black"/>
  <path d="M110.813 34.0207C110.813 35.4074 110.32 36.5357 109.328 37.4066C108.239 38.3585 106.722 38.8338 104.774 38.8338C102.975 38.8338 101.532 38.4957 100.44 37.8182L101.061 35.6414C102.237 36.3348 103.527 36.6827 104.933 36.6827C105.942 36.6827 106.727 36.4597 107.292 36.0163C107.853 35.5728 108.133 34.9775 108.133 34.2351C108.133 33.5736 107.902 33.0162 107.439 32.5642C106.977 32.1122 106.207 31.692 105.132 31.3037C102.204 30.2392 100.742 28.6797 100.742 26.6291C100.742 25.2889 101.255 24.1901 102.281 23.3351C103.304 22.4788 104.668 22.0513 106.374 22.0513C107.896 22.0513 109.16 22.3097 110.169 22.8255L109.499 24.9545C108.557 24.4547 107.491 24.2048 106.299 24.2048C105.357 24.2048 104.62 24.4314 104.093 24.8822C103.647 25.2853 103.423 25.7765 103.423 26.3584C103.423 27.0027 103.678 27.5356 104.191 27.9545C104.637 28.3416 105.447 28.7606 106.623 29.2126C108.062 29.7773 109.118 30.4376 109.798 31.1947C110.475 31.9493 110.813 32.8937 110.813 34.0207Z" fill="black"/>
  <path d="M119.67 28.7972H116.717V34.5045C116.717 35.9561 117.237 36.6813 118.28 36.6813C118.759 36.6813 119.156 36.6409 119.47 36.56L119.544 38.5433C119.016 38.7356 118.322 38.8324 117.461 38.8324C116.403 38.8324 115.576 38.5176 114.98 37.8891C114.385 37.2595 114.086 36.2035 114.086 34.7201V28.7947H112.327V26.8347H114.086V24.6824L116.717 23.9082V26.8347H119.67V28.7972Z" fill="black"/>
  <path d="M132.991 32.618C132.991 34.4249 132.461 35.9084 131.403 37.0685C130.294 38.2628 128.821 38.8582 126.986 38.8582C125.217 38.8582 123.808 38.2861 122.758 37.142C121.708 35.9978 121.182 34.5535 121.182 32.8128C121.182 30.9912 121.723 29.4992 122.807 28.3391C123.889 27.1778 125.349 26.5972 127.184 26.5972C128.953 26.5972 130.377 27.1692 131.451 28.3146C132.479 29.4257 132.991 30.8602 132.991 32.618ZM130.212 32.7026C130.212 31.6184 129.975 30.6887 129.494 29.9132C128.932 28.9749 128.129 28.5069 127.089 28.5069C126.012 28.5069 125.194 28.9761 124.633 29.9132C124.151 30.6899 123.914 31.6344 123.914 32.7516C123.914 33.8357 124.151 34.7655 124.633 35.5397C125.212 36.478 126.021 36.946 127.065 36.946C128.088 36.946 128.891 36.4682 129.47 35.5152C129.963 34.725 130.212 33.7855 130.212 32.7026Z" fill="black"/>
  <path d="M141.698 29.1341C141.433 29.0864 141.151 29.0619 140.854 29.0619C139.912 29.0619 139.183 29.4085 138.67 30.1031C138.224 30.7156 138.001 31.4898 138.001 32.4245V38.5924H135.323L135.349 30.5392C135.349 29.1844 135.315 27.9508 135.248 26.8385H137.581L137.679 29.0876H137.753C138.036 28.3146 138.482 27.6923 139.093 27.2256C139.689 26.8054 140.334 26.5959 141.029 26.5959C141.276 26.5959 141.5 26.6131 141.698 26.6437V29.1341Z" fill="black"/>
  <path d="M153.678 32.1587C153.678 32.6267 153.647 33.0211 153.58 33.3433H145.544C145.576 34.5046 145.964 35.3927 146.71 36.0052C147.387 36.5528 148.263 36.8272 149.339 36.8272C150.528 36.8272 151.614 36.6422 152.59 36.2711L153.01 38.0841C151.869 38.5692 150.522 38.8105 148.968 38.8105C147.098 38.8105 145.631 38.2739 144.563 37.2021C143.498 36.1302 142.964 34.6908 142.964 32.8852C142.964 31.1126 143.46 29.6365 144.454 28.4592C145.494 27.2024 146.9 26.574 148.669 26.574C150.407 26.574 151.722 27.2024 152.615 28.4592C153.323 29.4576 153.678 30.6924 153.678 32.1587ZM151.124 31.4813C151.142 30.7071 150.967 30.0383 150.604 29.4735C150.14 28.7471 149.428 28.3845 148.469 28.3845C147.593 28.3845 146.881 28.7385 146.337 29.449C145.891 30.0138 145.626 30.6912 145.544 31.4801H151.124V31.4813Z" fill="black"/>
  </svg>
