<svg width="157" height="58" viewBox="0 0 157 58" fill="none" xmlns="http://www.w3.org/2000/svg">
<rect width="156.424" height="58" rx="6" fill="black"/>
<path d="M39.2696 27.9401C39.239 24.6285 42.0507 23.0173 42.1793 22.9423C40.5869 20.6788 38.1188 20.3695 37.2515 20.3448C35.1786 20.1321 33.1678 21.5542 32.1119 21.5542C31.0348 21.5542 29.4088 20.3654 27.6562 20.4003C25.401 20.4342 23.2912 21.7073 22.134 23.6842C19.746 27.7151 21.527 33.6386 23.8149 36.8968C24.9594 38.4925 26.2967 40.2742 28.0472 40.2116C29.7597 40.1427 30.3994 39.1471 32.466 39.1471C34.5136 39.1471 35.1143 40.2116 36.8995 40.1715C38.7374 40.1427 39.8945 38.5686 40.999 36.9585C42.3215 35.1295 42.8527 33.3283 42.8738 33.2358C42.8306 33.2215 39.3044 31.9093 39.2696 27.9401Z" fill="white"/>
<path d="M35.8973 18.2015C36.8184 17.0784 37.4486 15.5505 37.2736 14C35.9405 14.0575 34.2733 14.8991 33.3133 15.9975C32.4639 16.9654 31.7051 18.5518 31.9011 20.0438C33.3986 20.1527 34.9362 19.307 35.8973 18.2015Z" fill="white"/>
<path d="M64.0529 39.9831H61.6596L60.3486 35.9666H55.7918L54.5429 39.9831H52.2129L56.7276 26.3091H59.5161L64.0529 39.9831ZM59.9534 34.2815L58.7678 30.7109C58.6424 30.3461 58.4074 29.4871 58.0607 28.135H58.0185C57.8805 28.7165 57.6581 29.5755 57.3525 30.7109L56.188 34.2815H59.9534Z" fill="white"/>
<path d="M75.6631 34.9312C75.6631 36.608 75.1984 37.9335 74.2689 38.9066C73.4363 39.7728 72.4025 40.2053 71.1684 40.2053C69.8364 40.2053 68.8795 39.7388 68.2967 38.8059H68.2546V43.9999H66.0078V33.3683C66.0078 32.3141 65.9793 31.2322 65.9245 30.1225H67.9005L68.0259 31.6853H68.068C68.8173 30.5078 69.9544 29.92 71.4804 29.92C72.6733 29.92 73.6692 30.3793 74.4659 31.2989C75.2647 32.2196 75.6631 33.43 75.6631 34.9312ZM73.3741 35.0113C73.3741 34.0516 73.1528 33.2605 72.7081 32.6378C72.2223 31.9884 71.57 31.6637 70.7522 31.6637C70.1978 31.6637 69.6941 31.8446 69.2441 32.2011C68.7931 32.5607 68.498 33.0303 68.3599 33.6119C68.2904 33.8831 68.2556 34.1051 68.2556 34.2797V35.9237C68.2556 36.6409 68.4811 37.2461 68.9322 37.7404C69.3832 38.2346 69.9692 38.4812 70.69 38.4812C71.5362 38.4812 72.1949 38.1627 72.666 37.5277C73.1381 36.8916 73.3741 36.0532 73.3741 35.0113Z" fill="white"/>
<path d="M87.2944 34.9312C87.2944 36.608 86.8297 37.9335 85.8991 38.9066C85.0677 39.7728 84.0338 40.2053 82.7998 40.2053C81.4677 40.2053 80.5108 39.7388 79.9291 38.8059H79.8869V43.9999H77.6401V33.3683C77.6401 32.3141 77.6117 31.2322 77.5569 30.1225H79.5328L79.6583 31.6853H79.7004C80.4486 30.5078 81.5857 29.92 83.1128 29.92C84.3047 29.92 85.3006 30.3793 86.0994 31.2989C86.895 32.2196 87.2944 33.43 87.2944 34.9312ZM85.0055 35.0113C85.0055 34.0516 84.7831 33.2605 84.3384 32.6378C83.8526 31.9884 83.2023 31.6637 82.3835 31.6637C81.8281 31.6637 81.3254 31.8446 80.8744 32.2011C80.4234 32.5607 80.1293 33.0303 79.9913 33.6119C79.9228 33.8831 79.8869 34.1051 79.8869 34.2797V35.9237C79.8869 36.6409 80.1125 37.2461 80.5614 37.7404C81.0124 38.2336 81.5984 38.4812 82.3213 38.4812C83.1676 38.4812 83.8262 38.1627 84.2973 37.5277C84.7694 36.8916 85.0055 36.0532 85.0055 35.0113Z" fill="white"/>
<path d="M100.299 36.1479C100.299 37.311 99.8848 38.2573 99.0533 38.9879C98.1396 39.7863 96.8676 40.1849 95.2331 40.1849C93.724 40.1849 92.5142 39.9013 91.5984 39.3331L92.119 37.5073C93.1054 38.0888 94.1877 38.3806 95.3669 38.3806C96.2132 38.3806 96.8718 38.1936 97.345 37.8217C97.8161 37.4497 98.0511 36.9503 98.0511 36.3277C98.0511 35.7728 97.8572 35.3053 97.4683 34.9262C97.0816 34.547 96.4355 34.1946 95.5335 33.8689C93.078 32.976 91.8513 31.668 91.8513 29.9479C91.8513 28.8238 92.2813 27.9022 93.1423 27.185C94.0001 26.4668 95.1446 26.1082 96.5757 26.1082C97.8519 26.1082 98.9121 26.325 99.7583 26.7575L99.1966 28.5433C98.4062 28.1241 97.5126 27.9145 96.5125 27.9145C95.7221 27.9145 95.1045 28.1046 94.6619 28.4827C94.2878 28.8208 94.1002 29.2328 94.1002 29.7208C94.1002 30.2613 94.3142 30.7083 94.7441 31.0597C95.1182 31.3844 95.798 31.7358 96.7844 32.1149C97.991 32.5886 98.8773 33.1424 99.4474 33.7774C100.015 34.4104 100.299 35.2026 100.299 36.1479Z" fill="white"/>
<path d="M107.728 31.7665H105.251V36.5537C105.251 37.7712 105.687 38.3795 106.562 38.3795C106.963 38.3795 107.297 38.3456 107.56 38.2778L107.622 39.9413C107.18 40.1026 106.597 40.1838 105.875 40.1838C104.988 40.1838 104.294 39.9198 103.794 39.3926C103.295 38.8645 103.044 37.9788 103.044 36.7345V31.7645H101.569V30.1205H103.044V28.3152L105.251 27.6658V30.1205H107.728V31.7665Z" fill="white"/>
<path d="M118.901 34.9713C118.901 36.4869 118.457 37.7312 117.569 38.7042C116.639 39.706 115.404 40.2054 113.864 40.2054C112.38 40.2054 111.199 39.7256 110.318 38.7659C109.437 37.8062 108.996 36.5948 108.996 35.1347C108.996 33.6068 109.449 32.3553 110.359 31.3823C111.266 30.4082 112.491 29.9211 114.031 29.9211C115.514 29.9211 116.708 30.401 117.609 31.3617C118.471 32.2936 118.901 33.4968 118.901 34.9713ZM116.57 35.0422C116.57 34.1329 116.371 33.353 115.968 32.7026C115.496 31.9155 114.823 31.523 113.95 31.523C113.047 31.523 112.361 31.9166 111.89 32.7026C111.487 33.354 111.287 34.1462 111.287 35.0833C111.287 35.9926 111.487 36.7725 111.89 37.4219C112.376 38.209 113.055 38.6015 113.93 38.6015C114.788 38.6015 115.462 38.2007 115.948 37.4014C116.362 36.7386 116.57 35.9505 116.57 35.0422Z" fill="white"/>
<path d="M126.205 32.049C125.982 32.009 125.745 31.9884 125.496 31.9884C124.706 31.9884 124.095 32.2792 123.665 32.8618C123.291 33.3755 123.103 34.0249 123.103 34.8089V39.9824H120.857L120.878 33.2276C120.878 32.0912 120.85 31.0565 120.794 30.1235H122.751L122.833 32.01H122.896C123.133 31.3616 123.507 30.8397 124.019 30.4482C124.52 30.0957 125.06 29.92 125.643 29.92C125.851 29.92 126.038 29.9344 126.205 29.9601V32.049Z" fill="white"/>
<path d="M136.253 34.586C136.253 34.9785 136.227 35.3093 136.171 35.5796H129.43C129.457 36.5537 129.782 37.2986 130.408 37.8123C130.976 38.2716 131.711 38.5018 132.613 38.5018C133.611 38.5018 134.522 38.3466 135.34 38.0353L135.692 39.556C134.736 39.9629 133.606 40.1653 132.302 40.1653C130.734 40.1653 129.503 39.7153 128.607 38.8162C127.714 37.9171 127.266 36.7098 127.266 35.1953C127.266 33.7085 127.682 32.4704 128.516 31.4829C129.388 30.4287 130.568 29.9016 132.051 29.9016C133.509 29.9016 134.612 30.4287 135.362 31.4829C135.955 32.3203 136.253 33.3561 136.253 34.586ZM134.111 34.0178C134.125 33.3684 133.979 32.8074 133.674 32.3337C133.285 31.7244 132.688 31.4203 131.884 31.4203C131.149 31.4203 130.552 31.7172 130.095 32.3132C129.721 32.7868 129.499 33.355 129.43 34.0168H134.111V34.0178Z" fill="white"/>
<path d="M59.2104 17.8963C59.2104 19.1057 58.8384 20.0161 58.0955 20.6274C57.4073 21.1915 56.4293 21.4741 55.1626 21.4741C54.5345 21.4741 53.9971 21.4474 53.5471 21.394V14.7861C54.1341 14.6936 54.7664 14.6464 55.4493 14.6464C56.6559 14.6464 57.5654 14.9022 58.1787 15.4139C58.8658 15.9924 59.2104 16.8195 59.2104 17.8963ZM58.0459 17.9261C58.0459 17.1422 57.8331 16.5411 57.4073 16.1219C56.9816 15.7037 56.3598 15.4941 55.5409 15.4941C55.1932 15.4941 54.897 15.5167 54.6515 15.5639V20.5874C54.7874 20.6079 55.0361 20.6172 55.3976 20.6172C56.2428 20.6172 56.8951 20.388 57.3546 19.9298C57.8141 19.4715 58.0459 18.8036 58.0459 17.9261Z" fill="white" stroke="white" stroke-width="0.2"/>
<path d="M65.385 18.9526C65.385 19.6975 65.1668 20.3078 64.7305 20.7866C64.2732 21.2788 63.6672 21.5244 62.9105 21.5244C62.1813 21.5244 61.6006 21.2891 61.1675 20.8164C60.7354 20.3448 60.5193 19.7499 60.5193 19.0327C60.5193 18.2826 60.7417 17.6672 61.1885 17.1894C61.6354 16.7116 62.2361 16.4722 62.9927 16.4722C63.722 16.4722 64.3079 16.7075 64.7516 17.1791C65.1731 17.6374 65.385 18.2292 65.385 18.9526ZM64.2394 18.9875C64.2394 18.5405 64.1404 18.1573 63.9433 17.8377C63.7115 17.4514 63.3816 17.2582 62.9527 17.2582C62.509 17.2582 62.1718 17.4514 61.9399 17.8377C61.7418 18.1573 61.6438 18.5467 61.6438 19.007C61.6438 19.454 61.7429 19.8372 61.9399 20.1568C62.1792 20.5431 62.5122 20.7363 62.9421 20.7363C63.3637 20.7363 63.6946 20.54 63.9328 20.1465C64.1372 19.8208 64.2394 19.4345 64.2394 18.9875Z" fill="white" stroke="white" stroke-width="0.2"/>
<path d="M73.664 16.5708L72.1095 21.4144H71.0978L70.4539 19.3111C70.2906 18.7861 70.1578 18.2641 70.0545 17.7463H70.0345C69.9386 18.2785 69.8058 18.7995 69.6351 19.3111L68.9512 21.4144H67.9279L66.4662 16.5708H67.6012L68.1629 18.8734C68.2988 19.418 68.4105 19.9369 68.5001 20.428H68.5201C68.6023 20.0232 68.7383 19.5074 68.9301 18.8837L69.6351 16.5718H70.5351L71.2106 18.8344C71.374 19.3862 71.5067 19.9174 71.609 20.4291H71.6395C71.7143 19.9307 71.8271 19.3995 71.9768 18.8344L72.5796 16.5718H73.664V16.5708Z" fill="white" stroke="white" stroke-width="0.2"/>
<path d="M79.3895 21.4145H78.2851V18.6402C78.2851 17.7853 77.9521 17.3579 77.2839 17.3579C76.9562 17.3579 76.6917 17.475 76.4862 17.7103C76.2828 17.9456 76.1795 18.2231 76.1795 18.5406V21.4135H75.0751V17.9549C75.0751 17.5295 75.0614 17.0681 75.035 16.5688H76.0056L76.0573 17.3261H76.0878C76.2164 17.0908 76.4082 16.8966 76.6601 16.7414C76.9594 16.5606 77.2945 16.4691 77.6612 16.4691C78.1249 16.4691 78.5106 16.615 78.8173 16.9079C79.1988 17.2665 79.3895 17.8018 79.3895 18.5128V21.4145Z" fill="white" stroke="white" stroke-width="0.2"/>
<path d="M82.4352 21.4144H81.3318V14.3483H82.4352V21.4144Z" fill="white" stroke="white" stroke-width="0.2"/>
<path d="M88.9373 18.9526C88.9373 19.6975 88.7192 20.3078 88.2829 20.7866C87.8255 21.2788 87.2185 21.5244 86.4629 21.5244C85.7326 21.5244 85.1519 21.2891 84.7198 20.8164C84.2878 20.3448 84.0717 19.7499 84.0717 19.0327C84.0717 18.2826 84.2941 17.6672 84.7409 17.1894C85.1877 16.7116 85.7884 16.4722 86.544 16.4722C87.2744 16.4722 87.8592 16.7075 88.304 17.1791C88.7255 17.6374 88.9373 18.2292 88.9373 18.9526ZM87.7907 18.9875C87.7907 18.5405 87.6917 18.1573 87.4946 17.8377C87.2638 17.4514 86.9329 17.2582 86.505 17.2582C86.0603 17.2582 85.7231 17.4514 85.4923 17.8377C85.2942 18.1573 85.1962 18.5467 85.1962 19.007C85.1962 19.454 85.2952 19.8372 85.4923 20.1568C85.7315 20.5431 86.0645 20.7363 86.4945 20.7363C86.9161 20.7363 87.2459 20.54 87.4841 20.1465C87.6896 19.8208 87.7907 19.4345 87.7907 18.9875Z" fill="white" stroke="white" stroke-width="0.2"/>
<path d="M94.2825 21.4144H93.2908L93.2086 20.8565H93.1781C92.8387 21.3014 92.355 21.5244 91.7269 21.5244C91.2579 21.5244 90.8786 21.3775 90.593 21.0856C90.3337 20.8206 90.2041 20.4907 90.2041 20.0992C90.2041 19.5074 90.457 19.0563 90.966 18.744C91.474 18.4316 92.1885 18.2785 93.1085 18.2857V18.1953C93.1085 17.5572 92.7649 17.2387 92.0768 17.2387C91.5867 17.2387 91.1547 17.3589 90.7816 17.5973L90.5571 16.8904C91.0187 16.6119 91.5889 16.4722 92.2612 16.4722C93.5596 16.4722 94.2108 17.14 94.2108 18.4758V20.2595C94.2108 20.7435 94.2351 21.1288 94.2825 21.4144ZM93.1359 19.7499V19.0029C91.9177 18.9824 91.3085 19.3081 91.3085 19.979C91.3085 20.2318 91.3781 20.4209 91.5204 20.5472C91.6626 20.6736 91.8439 20.7363 92.0599 20.7363C92.3023 20.7363 92.5289 20.6613 92.7354 20.5123C92.943 20.3623 93.0706 20.1722 93.118 19.939C93.1296 19.8866 93.1359 19.8228 93.1359 19.7499Z" fill="white" stroke="white" stroke-width="0.2"/>
<path d="M100.558 21.4144H99.578L99.5264 20.6366H99.4958C99.1828 21.2284 98.6496 21.5243 97.9003 21.5243C97.3017 21.5243 96.8032 21.2952 96.4081 20.8369C96.0129 20.3787 95.8158 19.7837 95.8158 19.0532C95.8158 18.2692 96.0297 17.6342 96.4597 17.1492C96.876 16.6971 97.386 16.4711 97.993 16.4711C98.6601 16.4711 99.127 16.6899 99.3925 17.1287H99.4136V14.3483H100.519V20.1095C100.519 20.5811 100.532 21.0157 100.558 21.4144ZM99.4136 19.3717V18.5641C99.4136 18.4244 99.4031 18.3113 99.3831 18.225C99.3209 17.9661 99.187 17.7483 98.9837 17.5726C98.7782 17.3969 98.5305 17.3085 98.2449 17.3085C97.8328 17.3085 97.5104 17.4678 97.2733 17.7873C97.0383 18.1069 96.9192 18.5148 96.9192 19.0131C96.9192 19.4919 97.0319 19.8803 97.2585 20.1793C97.4977 20.4979 97.8202 20.6571 98.2238 20.6571C98.5864 20.6571 98.8762 20.5246 99.0964 20.2585C99.3093 20.0129 99.4136 19.717 99.4136 19.3717Z" fill="white" stroke="white" stroke-width="0.2"/>
<path d="M110.004 18.9526C110.004 19.6975 109.786 20.3078 109.349 20.7866C108.892 21.2788 108.287 21.5244 107.529 21.5244C106.801 21.5244 106.22 21.2891 105.786 20.8164C105.354 20.3448 105.138 19.7499 105.138 19.0327C105.138 18.2826 105.361 17.6672 105.807 17.1894C106.254 16.7116 106.855 16.4722 107.613 16.4722C108.341 16.4722 108.928 16.7075 109.37 17.1791C109.792 17.6374 110.004 18.2292 110.004 18.9526ZM108.859 18.9875C108.859 18.5405 108.76 18.1573 108.563 17.8377C108.33 17.4514 108.001 17.2582 107.572 17.2582C107.129 17.2582 106.792 17.4514 106.559 17.8377C106.361 18.1573 106.263 18.5467 106.263 19.007C106.263 19.454 106.362 19.8372 106.559 20.1568C106.798 20.5431 107.131 20.7363 107.561 20.7363C107.983 20.7363 108.314 20.54 108.553 20.1465C108.756 19.8208 108.859 19.4345 108.859 18.9875Z" fill="white" stroke="white" stroke-width="0.2"/>
<path d="M115.942 21.4145H114.839V18.6402C114.839 17.7853 114.506 17.3579 113.837 17.3579C113.509 17.3579 113.244 17.475 113.04 17.7103C112.835 17.9456 112.733 18.2231 112.733 18.5406V21.4135H111.628V17.9549C111.628 17.5295 111.615 17.0681 111.589 16.5688H112.558L112.61 17.3261H112.641C112.77 17.0908 112.962 16.8966 113.213 16.7414C113.513 16.5606 113.847 16.4691 114.215 16.4691C114.678 16.4691 115.063 16.615 115.37 16.9079C115.753 17.2665 115.942 17.8018 115.942 18.5128V21.4145Z" fill="white" stroke="white" stroke-width="0.2"/>
<path d="M123.375 17.3774H122.159V19.7304C122.159 20.3284 122.375 20.6274 122.803 20.6274C123.001 20.6274 123.165 20.6109 123.295 20.577L123.323 21.3939C123.105 21.474 122.819 21.5141 122.466 21.5141C122.029 21.5141 121.69 21.3846 121.444 21.1257C121.198 20.8668 121.076 20.4311 121.076 19.8197V17.3774H120.349V16.5708H121.076V15.683L122.158 15.3645V16.5698H123.374V17.3774H123.375Z" fill="white" stroke="white" stroke-width="0.2"/>
<path d="M129.222 21.4144H128.116V18.6607C128.116 17.7925 127.783 17.3578 127.116 17.3578C126.604 17.3578 126.254 17.6096 126.062 18.113C126.03 18.2189 126.011 18.3483 126.011 18.5004V21.4134H124.907V14.3483H126.011V17.2674H126.032C126.38 16.7362 126.878 16.4711 127.524 16.4711C127.981 16.4711 128.36 16.617 128.66 16.9098C129.034 17.2746 129.222 17.8171 129.222 18.5343V21.4144Z" fill="white" stroke="white" stroke-width="0.2"/>
<path d="M135.253 18.7635C135.253 18.9566 135.238 19.119 135.212 19.2515H131.9C131.914 19.7303 132.072 20.0951 132.379 20.3479C132.659 20.5739 133.021 20.6869 133.463 20.6869C133.953 20.6869 134.4 20.6109 134.803 20.4578L134.976 21.2058C134.505 21.4052 133.95 21.5048 133.309 21.5048C132.539 21.5048 131.933 21.2839 131.495 20.8421C131.054 20.4003 130.836 19.8074 130.836 19.0635C130.836 18.3329 131.04 17.7247 131.45 17.2397C131.877 16.7218 132.456 16.4629 133.186 16.4629C133.901 16.4629 134.444 16.7218 134.81 17.2397C135.106 17.6507 135.253 18.1593 135.253 18.7635ZM134.199 18.485C134.207 18.1655 134.135 17.8901 133.985 17.6579C133.793 17.3589 133.501 17.2089 133.106 17.2089C132.746 17.2089 132.452 17.3548 132.227 17.6476C132.044 17.8808 131.935 18.1593 131.9 18.485H134.199Z" fill="white" stroke="white" stroke-width="0.2"/>
</svg>
