<svg xmlns="http://www.w3.org/2000/svg" enable-background="new 0 0 132 132" viewBox="0 0 132 132"><circle cx="66" cy="66" r="64" fill="#4A749B"/><path fill="#386384" d="M42.96859 108.3976c0-.55517.45005-1.00522 1.00522-1.00522h6.32154c.55278 0 1.00515.45232 1.00515 1.0052s-.45237 1.00524-1.00515 1.00524h-6.32154C43.41864 109.40282 42.96859 108.95277 42.96859 108.3976L42.96859 108.3976zM40.10067 108.3976L40.10067 108.3976c0 .55517-.45005 1.00522-1.00522 1.00522H26.43891c-.55517 0-1.00522-.45005-1.00522-1.00522l0 0c0-.55517.45005-1.00522 1.00522-1.00522h12.65654C39.65062 107.39238 40.10067 107.84243 40.10067 108.3976zM101.29789 111.29444c-.55518 0-1.00513.45001-1.00513 1.00519s.44995 1.00525 1.00513 1.00525h7.8103c.71777-.65454 1.42139-1.32428 2.10864-2.01044H101.29789zM92.20071 112.29955c0-.55517.45005-1.00522 1.00522-1.00522l4.12341.00001c.55278 0 1.00515.45232 1.00515 1.0052s-.45237 1.00524-1.00515 1.00524h-4.12341C92.65076 113.30477 92.20071 112.85471 92.20071 112.29955L92.20071 112.29955zM119.03129 42.02863h6.30859c-.27344-.67627-.55884-1.34583-.85449-2.01044h-5.4541c-.55518 0-1.00513.45001-1.00513 1.00519C118.02616 41.57862 118.47611 42.02863 119.03129 42.02863zM114.51167 40.01823h.94627c.55517 0 1.00522.45005 1.00522 1.00522l0 0c0 .55517-.45005 1.00522-1.00522 1.00522h-.94627c-.55514 0-1.00515-.45006-1.00515-1.0052v-.00005C113.50652 40.46829 113.95653 40.01823 114.51167 40.01823zM44.02976 73.5041c0 .55517-.45005 1.00522-1.00522 1.00522l-16.00727.00001c-.55296 0-1.00515-.45237-1.00515-1.00524s.45219-1.0052 1.00515-1.0052l16.00727-.00001C43.57971 72.49888 44.02976 72.94893 44.02976 73.5041L44.02976 73.5041zM45.59109 73.5041L45.59109 73.5041c0-.55517.45005-1.00522 1.00522-1.00522h4.80804c.55516 0 1.00522.45005 1.00522 1.00522l0 0c0 .55517-.45005 1.00522-1.00522 1.00522h-4.80804C46.04115 74.50932 45.59109 74.05927 45.59109 73.5041zM95.55791 48.85476c0 .55517-.45005 1.00522-1.00522 1.00522l-16.00727 0c-.55296 0-1.00515-.45237-1.00515-1.00524s.45219-1.0052 1.00515-1.0052l16.00727 0C95.10786 47.84954 95.55791 48.29959 95.55791 48.85476L95.55791 48.85476zM97.11924 48.85476L97.11924 48.85476c0-.55517.45005-1.00522 1.00522-1.00522h4.80804c.55517 0 1.00522.45005 1.00522 1.00522v0c0 .55516-.45005 1.00522-1.00522 1.00522h-4.80804C97.56929 49.85998 97.11924 49.40992 97.11924 48.85476zM2.15498 61.65347c.04004-.68018.09985-1.3501.15991-2.00977h9.88013c.55981 0 1.01001.44971 1.01001 1 0 .56006-.4502 1.00977-1.01001 1.00977H2.15498zM14.76461 60.64502L14.76461 60.64502c0-.55517.45005-1.00522 1.00522-1.00522h4.80804c.55517 0 1.00522.45005 1.00522 1.00522l0 0c0 .55517-.45005 1.00522-1.00522 1.00522h-4.80804C15.21466 61.65024 14.76461 61.20019 14.76461 60.64502zM105.70486 90.81735c0 .55516-.45005 1.00522-1.00522 1.00522H88.69238c-.55296 0-1.00515-.45237-1.00515-1.00524s.45219-1.0052 1.00515-1.0052l16.00727-.00001C105.25481 89.81213 105.70486 90.26218 105.70486 90.81735L105.70486 90.81735zM107.2662 90.81735L107.2662 90.81735c0-.55517.45006-1.00523 1.00522-1.00523h4.80804c.55517 0 1.00522.45005 1.00522 1.00522l0 0c0 .55517-.45005 1.00522-1.00522 1.00522h-4.80804C107.71626 91.82256 107.2662 91.37251 107.2662 90.81735zM90.60892 6.9134h-4.52295c-.55518 0-1.00513.45007-1.00513 1.00519v.00006c0 .55518.44995 1.00519 1.00513 1.00519h8.85034C93.52128 8.20496 92.08207 7.52772 90.60892 6.9134zM72.99117 8.92387l8.95542 0c.55516 0 1.00522-.45005 1.00522-1.00522v0c0-.55517-.45006-1.00522-1.00522-1.00522l-8.95542 0c-.55296 0-1.00533.45237-1.00533 1.00524C71.98584 8.47154 72.43821 8.92387 72.99117 8.92387zM48.9818 19.8602l-12.75004 0c-.55516 0-1.00525-.45005-1.00529-1.00522v0c-.00005-.55517.44997-1.00522 1.00513-1.00522l12.75004 0c.55296 0 1.00518.45237 1.00523 1.00524C49.98691 19.40787 49.53476 19.8602 48.9818 19.8602zM32.61391 18.85497c.00005.55517-.44997 1.00522-1.00513 1.00522l-1.0803 0c-.55513 0-1.00518-.45006-1.00523-1.0052-.00004-.55518.44993-1.00524 1.00507-1.00524h1.08029C32.16378 17.84975 32.61387 18.29981 32.61391 18.85497L32.61391 18.85497zM78.5497 121.6698H65.79965c-.55516 0-1.00525-.45005-1.00529-1.00522l0 0c-.00005-.55517.44997-1.00522 1.00513-1.00522h12.75005c.55296 0 1.00518.45238 1.00523 1.00524C79.55481 121.21748 79.10265 121.6698 78.5497 121.6698zM62.18181 120.66458c.00005.55516-.44997 1.00522-1.00513 1.00522l-1.0803-.00001c-.55513 0-1.00518-.45006-1.00523-1.0052-.00005-.55518.44993-1.00524 1.00507-1.00524h1.0803C61.73168 119.65936 62.18176 120.10941 62.18181 120.66458L62.18181 120.66458zM117.0211 68.06023h-12.75004c-.55517 0-1.00526-.45005-1.0053-1.00522l0 0c-.00004-.55517.44997-1.00522 1.00513-1.00522h12.75005c.55296 0 1.00518.45238 1.00523 1.00524C118.02621 67.60791 117.57405 68.06023 117.0211 68.06023zM100.65321 67.05502c.00005.55517-.44997 1.00522-1.00513 1.00522h-1.08029c-.55513 0-1.00519-.45007-1.00523-1.0052-.00005-.55518.44993-1.00524 1.00507-1.00524l1.08029.00001C100.20308 66.0498 100.65316 66.49985 100.65321 67.05502L100.65321 67.05502zM34.66043 39.74487l-12.75004 0c-.55517 0-1.00525-.45005-1.0053-1.00522v0c-.00004-.55517.44997-1.00522 1.00513-1.00522l12.75004 0c.55296 0 1.00518.45237 1.00523 1.00525C35.66554 39.29254 35.21339 39.74487 34.66043 39.74487zM18.29254 38.73964c.00005.55517-.44997 1.00522-1.00513 1.00522h-1.0803c-.55513 0-1.00518-.45006-1.00523-1.0052-.00004-.55518.44993-1.00524 1.00507-1.00524h1.08029C17.84241 37.73442 18.29249 38.18447 18.29254 38.73964L18.29254 38.73964zM104.49433 27.3813l-12.75004 0c-.55517 0-1.00526-.45005-1.00529-1.00522v0c-.00005-.55517.44997-1.00522 1.00513-1.00522l12.75005.00001c.55296 0 1.00519.45237 1.00523 1.00524C105.49944 26.92898 105.04729 27.3813 104.49433 27.3813zM88.12644 26.37608c.00005.55517-.44997 1.00522-1.00513 1.00522h-1.08029c-.55513 0-1.00518-.45006-1.00523-1.0052-.00005-.55518.44993-1.00524 1.00507-1.00524l1.08029 0C87.67632 25.37086 88.1264 25.82091 88.12644 26.37608L88.12644 26.37608zM20.78518 93.33266L20.78518 93.33266c0 .55517-.45005 1.00523-1.00522 1.00523h-1.67143c-.55517 0-1.00522-.45005-1.00522-1.00522l0 0c0-.55517.45005-1.00522 1.00522-1.00522l1.67143-.00001C20.33513 92.32744 20.78518 92.7775 20.78518 93.33266zM13.43852 92.32746H7.66801c.30518.67554.61621 1.3476.94409 2.01044h4.82642c.55518 0 1.00537-.45007 1.00537-1.00525S13.99369 92.32746 13.43852 92.32746z"/><path fill="#386384" d="M85.77353,27.86961v75.01913c0,0.83664-1.00804,1.25494-1.59786,0.66521l-3.45624-3.46306
			l-4.39563,4.39568c-0.36347,0.36346-0.95999,0.36346-1.32346,0l-4.3958-4.39568l-4.39563,4.39568
			c-0.36347,0.36346-0.95313,0.36346-1.32346,0l-4.3958-4.39568l-4.39563,4.39568c-0.36347,0.36346-0.95313,0.36346-1.3166,0
			l-4.40266-4.39568l-4.39563,4.39568c-0.36347,0.36346-0.95999,0.36346-1.32346,0l-4.4025-4.39568l-3.4631,3.46306
			c-0.58982,0.58974-1.59786,0.17143-1.59786-0.65834v-75.026c0-0.8366,1.00804-1.24808,1.59786-0.66516l3.4631,3.46306
			l4.39563-4.39572c0.36347-0.36343,0.95313-0.36343,1.3166,0l4.39563,4.39572l4.3958-4.39572
			c0.36347-0.36343,0.95999-0.36343,1.32346,0l4.39563,4.39572l4.3958-4.39572c0.36347-0.36343,0.95999-0.36343,1.32346,0
			l4.39564,4.39572l4.40266-4.39572c0.36346-0.36343,0.95313-0.36343,1.3166,0l4.40266,4.39572l3.46293-3.46306
			C84.76549,26.61466,85.77353,27.03301,85.77353,27.86961z"/><path fill="#386384" d="M100.28142,91.83962c0,9.73634-7.88564,17.63378-17.62198,17.63378s-17.63378-7.89745-17.63378-17.63378
			s7.89745-17.62206,17.63378-17.62206S100.28142,82.10329,100.28142,91.83962z"/><g><path fill="#EDEDED" d="M84.03672,26.1328v75.01913c0,0.83665-1.00803,1.25494-1.59786,0.66521l-3.45623-3.46306l-4.39564,4.39568
			c-0.36347,0.36347-0.95999,0.36347-1.32346,0l-4.39581-4.39568l-4.39563,4.39568c-0.36347,0.36347-0.95313,0.36347-1.32346,0
			l-4.3958-4.39568l-4.39563,4.39568c-0.36347,0.36347-0.95313,0.36347-1.3166,0l-4.40266-4.39568l-4.39563,4.39568
			c-0.36347,0.36347-0.95999,0.36347-1.32346,0l-4.4025-4.39568l-3.4631,3.46306c-0.58982,0.58974-1.59787,0.17144-1.59787-0.65834
			v-75.026c0-0.8366,1.00804-1.24808,1.59787-0.66516l3.4631,3.46306l4.39563-4.39572c0.36347-0.36343,0.95313-0.36343,1.3166,0
			l4.39563,4.39572l4.3958-4.39572c0.36347-0.36343,0.95999-0.36343,1.32346,0l4.39563,4.39572l4.3958-4.39572
			c0.36347-0.36343,0.96-0.36343,1.32346,0L68.854,28.9307l4.40266-4.39572c0.36347-0.36343,0.95313-0.36343,1.3166,0
			l4.40266,4.39572l3.46293-3.46306C83.02869,24.87786,84.03672,25.2962,84.03672,26.1328z"/><path fill="#DDDCE0" d="M36.9913 96.82291l1.52258 1.53384-3.45653 3.45667c-.58912.58911-1.60073.17788-1.60073-.65573v-.81142c.02225-.01113.0445-.03331.06675-.05556L36.9913 96.82291zM47.11666 96.82291l1.52285 1.53384-4.40139 4.39034c-.35575.36674-.95599.36674-1.32286 0l-1.52258-1.52271c.36687.36674.95572.36674 1.32259 0L47.11666 96.82291zM57.23118 96.82291l1.52258 1.53384-4.40139 4.39034c-.35575.36674-.94459.36674-1.31146 0l-1.52285-1.52271c.35575.36674.94486.36674 1.31173 0L57.23118 96.82291zM67.34569 96.82291l1.52258 1.53384-4.40138 4.39034c-.35575.36674-.94486.36674-1.32286 0l-1.52258-1.52271c.36687.36674.95599.36674 1.32259 0L67.34569 96.82291zM77.45993 96.82291l1.52258 1.53384-4.39026 4.39034c-.36661.36674-.96684.36674-1.33372 0l-1.52258-1.52271c.3666.36674.95571.36674 1.32259 0L77.45993 96.82291zM84.03976 26.13326v75.01329c0 .84473-1.01134 1.25597-1.60046.66685l-1.52258-1.52271c.58884.58912 1.58932.16675 1.58932-.66685V25.41078C83.1063 24.9106 84.03976 25.33296 84.03976 26.13326z"/><path fill="#F34B50" d="M59.8611,41.44716c0.61933,0.11429,1.16452,0.29422,1.63249,0.54056
				c0.46797,0.24711,0.86026,0.52897,1.17687,0.84481c0.31507,0.31661,0.556,0.64867,0.72126,0.99617
				c0.16372,0.34827,0.25793,0.67415,0.28418,0.97764c0.01236,0.15213-0.03552,0.27491-0.14209,0.3699
				c-0.10811,0.09499-0.23167,0.14286-0.37067,0.14286h-1.32823c-0.21468,0-0.37685-0.04093-0.48341-0.12356
				c-0.10811-0.08263-0.20695-0.19306-0.29499-0.33206c-0.18997-0.31661-0.47723-0.59153-0.86335-0.82551
				c-0.38611-0.23399-0.95756-0.35136-1.71743-0.35136c-0.32897,0-0.64249,0.03475-0.93903,0.10425
				c-0.29808,0.0695-0.55755,0.17066-0.7784,0.30349s-0.39538,0.29422-0.52203,0.48419s-0.18997,0.40542-0.18997,0.64558
				c0,0.29113,0.0695,0.5282,0.2085,0.71122c0.139,0.18379,0.36449,0.3421,0.67492,0.47492
				c0.30889,0.13282,0.70736,0.25561,1.19541,0.3699c0.4865,0.11352,1.07803,0.24634,1.77458,0.39847
				c0.75833,0.16449,1.40082,0.35754,1.92593,0.57917c0.52512,0.22086,0.95447,0.48727,1.28962,0.79694
				c0.33514,0.30966,0.57608,0.6672,0.72126,1.07185c0.14518,0.40542,0.21931,0.86721,0.21931,1.38538
				c0,0.49345-0.09576,0.95602-0.28572,1.38537c-0.18997,0.4309-0.46488,0.81625-0.82474,1.15834
				c-0.3614,0.34132-0.80003,0.62628-1.31896,0.85331c-0.51894,0.22781-1.10737,0.38612-1.76531,0.47492v1.29039
				c0,0.139-0.05096,0.25947-0.15136,0.36063c-0.10193,0.10116-0.2224,0.15213-0.3614,0.15213h-1.53673
				c-0.139,0-0.25947-0.05097-0.3614-0.15213c-0.10039-0.10116-0.15136-0.22163-0.15136-0.36063v-1.29039
				c-0.56836-0.08881-1.10428-0.23708-1.60314-0.44635c-0.5004-0.2085-0.93748-0.46488-1.3097-0.76837
				c-0.37376-0.30349-0.67338-0.65485-0.90196-1.05332c-0.22704-0.39847-0.35368-0.83786-0.37839-1.31896
				c-0.0139-0.15213,0.03398-0.27491,0.14209-0.3699c0.10657-0.09499,0.23013-0.14286,0.36913-0.14286h1.32823
				c0.21622,0,0.37993,0.03861,0.49422,0.11429c0.11429,0.07568,0.2085,0.18997,0.28418,0.34132
				c0.08803,0.16448,0.19614,0.32974,0.32279,0.49345c0.12665,0.16448,0.29808,0.31043,0.51276,0.43708
				c0.21468,0.12587,0.48341,0.23089,0.80621,0.31275c0.32279,0.08263,0.72435,0.12355,1.20467,0.12355
				c0.37993,0,0.74751-0.02857,1.10119-0.08572s0.66412-0.15136,0.92976-0.28418c0.26564-0.13359,0.48032-0.29731,0.64558-0.49345
				c0.16371-0.19614,0.24711-0.44017,0.24711-0.7313c0-0.278-0.08958-0.50581-0.26564-0.68265
				c-0.17761-0.17761-0.44635-0.32897-0.80621-0.45561c-0.3614-0.12664-0.80775-0.24711-1.33904-0.36063
				c-0.53129-0.11429-1.14444-0.25947-1.84099-0.43631c-0.63168-0.15213-1.18614-0.33205-1.66029-0.54133
				c-0.47415-0.2085-0.86644-0.46488-1.17688-0.76837c-0.31043-0.30349-0.54056-0.66103-0.69191-1.07262
				c-0.1529-0.41083-0.22858-0.90119-0.22858-1.47032c0-0.49345,0.09576-0.94907,0.28572-1.36684
				c0.18842-0.417,0.45098-0.79385,0.78767-1.129c0.3336-0.33514,0.73671-0.61392,1.20467-0.83477
				c0.46797-0.22163,0.98073-0.38303,1.53673-0.48419v-1.29039c0-0.139,0.05097-0.25947,0.15136-0.36063
				c0.10194-0.10116,0.2224-0.15213,0.3614-0.15213h1.53673c0.139,0,0.25947,0.05097,0.3614,0.15213
				c0.10039,0.10116,0.15136,0.22163,0.15136,0.36063V41.44716z"/><rect width="8.853" height="4.913" x="41.75" y="64.411" fill="#DDDCE0"/><rect width="21.048" height="4.913" x="54.694" y="64.411" fill="#DDDCE0"/><rect width="8.853" height="4.913" x="41.75" y="73.588" fill="#DDDCE0"/><rect width="21.048" height="4.913" x="54.694" y="73.588" fill="#DDDCE0"/><rect width="8.853" height="4.913" x="41.75" y="82.766" fill="#DDDCE0"/><rect width="21.048" height="4.913" x="54.694" y="82.766" fill="#DDDCE0"/><path fill="#66B071" d="M98.54461,90.10282c0,9.73634-7.88564,17.63378-17.62198,17.63378s-17.63378-7.89745-17.63378-17.63378
			s7.89745-17.62206,17.63378-17.62206S98.54461,80.36649,98.54461,90.10282z"/><path fill="#479E60" d="M98.54454,90.09851c0,9.73651-7.88017,17.63907-17.61696,17.63907
			c-5.50173,0-10.42548-2.52306-13.65977-6.49103c3.03429,2.4675,6.89108,3.93465,11.1036,3.93465
			c9.73651,0,17.62781-7.8915,17.62781-17.62801c0-4.21246-1.47807-8.08036-3.93465-11.1036
			C96.02147,79.67289,98.54454,84.58558,98.54454,90.09851z"/><path fill="#FFF" d="M78.67045,96.4082c-0.42657,0-0.85314-0.16281-1.17877-0.48844l-4.7726-4.77206
				c-0.65126-0.65071-0.65126-1.70628,0-2.35754c0.65125-0.65125,1.70628-0.65125,2.35754,0l3.59383,3.59329l8.0864-8.08585
				c0.65126-0.65125,1.70629-0.65125,2.35754,0s0.65125,1.70683,0,2.35754l-9.26517,9.26463
				C79.52359,96.24539,79.09702,96.4082,78.67045,96.4082z"/><path fill="#89CE91" d="M87.77032 77.83558c-.10254 0-.20703-.02441-.30469-.07617-2.00195-1.06543-4.26465-1.62891-6.54297-1.62891-.35938 0-.65039-.29102-.65039-.6499s.29102-.6499.65039-.6499c2.49121 0 4.96484.61572 7.1543 1.78125.31641.16846.43652.56201.26855.87891C88.22833 77.71058 88.00372 77.83558 87.77032 77.83558zM70.87872 80.12757c-.17285 0-.34473-.06836-.47266-.20361-.24609-.26123-.23438-.67236.02637-.91895 2.05371-1.93896 4.58984-3.26904 7.33496-3.84717.3418-.07227.69531.15039.76953.50244.07422.35107-.15039.6958-.50195.77002-2.51074.52832-4.83105 1.74561-6.70996 3.52002C71.19904 80.06898 71.03888 80.12757 70.87872 80.12757zM66.49103 88.32825c-.03613 0-.07227-.00293-.1084-.00879-.35449-.05957-.59277-.39453-.5332-.74854.39355-2.35059 1.35547-4.61133 2.7832-6.53809.21387-.28809.62012-.34863.90918-.13574.28906.21387.34961.62109.13574.90918-1.30566 1.7627-2.18652 3.83057-2.54688 5.97949C67.07794 88.10365 66.80255 88.32825 66.49103 88.32825zM67.34259 96.20716c-.25684 0-.50098-.1543-.60254-.40723-.73047-1.8125-1.10156-3.72949-1.10156-5.69727 0-.35889.29102-.6499.65039-.6499s.65039.29102.65039.6499c0 1.80029.33789 3.55371 1.00586 5.21094.13477.33301-.02637.71191-.35938.84619C67.50568 96.19154 67.42365 96.20716 67.34259 96.20716z"/><path fill="#FFF" d="M37.8631 35.9416v7.63c0 .58002-.47998 1.06-1.06006 1.06-.59009 0-1.07007-.47998-1.07007-1.06v-7.63c0-.57996.47998-1.06 1.07007-1.06C37.38312 34.8816 37.8631 35.36164 37.8631 35.9416zM37.8631 48.55164V61.6916c0 .58002-.47998 1.06-1.06006 1.06-.59009 0-1.07007-.47998-1.07007-1.06V48.55164c0-.58002.47998-1.06006 1.07007-1.06006C37.38312 47.49158 37.8631 47.97163 37.8631 48.55164z"/></g></svg>