<svg width="170" height="49" viewBox="0 0 170 49" fill="none" xmlns="http://www.w3.org/2000/svg">
  <path d="M163.333 49H6.28205C2.82849 49 0 46.2422 0 42.875V6.125C0 2.75778 2.82849 -9.53674e-07 6.28205 -9.53674e-07H163.333C166.787 -9.53674e-07 169.615 2.75778 169.615 6.125V42.875C169.615 46.2422 166.787 49 163.333 49Z" fill="white"/>
  <path d="M163.333 0.98153C166.242 0.98153 168.609 3.28913 168.609 6.125V42.875C168.609 45.7109 166.242 48.0185 163.333 48.0185H6.28205C3.37346 48.0185 1.0067 45.7109 1.0067 42.875V6.125C1.0067 3.28913 3.37346 0.98153 6.28205 0.98153H163.333ZM163.333 -9.53674e-07H6.28205C2.82849 -9.53674e-07 0 2.75778 0 6.125V42.875C0 46.2422 2.82849 49 6.28205 49H163.333C166.787 49 169.615 46.2422 169.615 42.875V6.125C169.615 2.75778 166.787 -9.53674e-07 163.333 -9.53674e-07Z" fill="white"/>
  <path d="M12.1684 9.23488C11.7993 9.61157 11.5857 10.198 11.5857 10.9575V38.0484C11.5857 38.8079 11.7993 39.3944 12.1684 39.7711L12.2594 39.8538L27.8295 24.6791V24.3208L12.2594 9.14607L12.1684 9.23488Z" fill="black"/>
  <path d="M34.8983 29.74L29.7141 24.6792V24.3209L34.9046 19.2601L35.0208 19.326L41.1678 22.7361C42.9221 23.7038 42.9221 25.2963 41.1678 26.2702L35.0208 29.6741L34.8983 29.74Z" fill="black"/>
  <path d="M34.0786 30.6164L28.7718 25.4423L13.1107 40.7135C13.6933 41.3107 14.6435 41.3826 15.724 40.7854L34.0786 30.6164Z" fill="black"/>
  <path d="M34.0786 18.3835L15.724 8.2145C14.6435 7.62343 13.6933 7.6954 13.1107 8.29259L28.7718 23.5576L34.0786 18.3835Z" fill="black"/>
  <path d="M59.5758 12.5486C59.5758 13.5715 59.2617 14.3907 58.6429 15.0017C57.9315 15.726 57.0049 16.0904 55.8694 16.0904C54.7842 16.0904 53.8576 15.7199 53.0974 14.9894C52.3357 14.2483 51.9557 13.3388 51.9557 12.25C51.9557 11.1613 52.3357 10.2518 53.0974 9.51676C53.8576 8.78023 54.7842 8.40967 55.8694 8.40967C56.4097 8.40967 56.9248 8.51839 57.4164 8.72051C57.9064 8.92417 58.3053 9.19979 58.5942 9.53973L57.9378 10.1859C57.4336 9.60558 56.7473 9.31923 55.8694 9.31923C55.0779 9.31923 54.3916 9.58873 53.8089 10.1323C53.2325 10.6774 52.9435 11.3834 52.9435 12.25C52.9435 13.1167 53.2325 13.8288 53.8089 14.3739C54.3916 14.9114 55.0779 15.187 55.8694 15.187C56.7096 15.187 57.4164 14.9114 57.9739 14.3678C58.3414 14.0079 58.5503 13.5118 58.6052 12.8779H55.8694V11.9928H59.5193C59.5632 12.1842 59.5758 12.3695 59.5758 12.5486Z" fill="black" stroke="black" stroke-width="0.0442262" stroke-miterlimit="10"/>
  <path d="M65.3663 9.47979H61.9379V11.8073H65.0286V12.6923H61.9379V15.0198H65.3663V15.9218H60.9673V8.57788H65.3663V9.47979Z" fill="black" stroke="black" stroke-width="0.0442262" stroke-miterlimit="10"/>
  <path d="M69.4528 15.9218H68.4822V9.47979H66.3793V8.57788H71.5572V9.47979H69.4528V15.9218Z" fill="black" stroke="black" stroke-width="0.0442262" stroke-miterlimit="10"/>
  <path d="M75.3045 15.9218V8.57788H76.2735V15.9218H75.3045Z" fill="black" stroke="black" stroke-width="0.0442262" stroke-miterlimit="10"/>
  <path d="M80.5688 15.9218H79.6061V9.47979H77.4954V8.57788H82.6796V9.47979H80.5688V15.9218Z" fill="black" stroke="black" stroke-width="0.0442262" stroke-miterlimit="10"/>
  <path d="M92.4827 14.9772C91.7399 15.7199 90.8196 16.0904 89.7218 16.0904C88.6177 16.0904 87.6974 15.7199 86.9545 14.9772C86.2132 14.2361 85.8442 13.3265 85.8442 12.25C85.8442 11.1736 86.2132 10.264 86.9545 9.52289C87.6974 8.78023 88.6177 8.40967 89.7218 8.40967C90.8133 8.40967 91.7336 8.78023 92.4765 9.52901C93.224 10.2763 93.5931 11.1797 93.5931 12.25C93.5931 13.3265 93.224 14.2361 92.4827 14.9772ZM87.6723 14.3616C88.2314 14.9114 88.9114 15.187 89.7218 15.187C90.5259 15.187 91.2122 14.9114 91.765 14.3616C92.3226 13.8119 92.6052 13.106 92.6052 12.25C92.6052 11.3941 92.3226 10.6882 91.765 10.1385C91.2122 9.58873 90.5259 9.31311 89.7218 9.31311C88.9114 9.31311 88.2314 9.58873 87.6723 10.1385C87.1147 10.6882 86.832 11.3941 86.832 12.25C86.832 13.106 87.1147 13.8119 87.6723 14.3616Z" fill="black" stroke="black" stroke-width="0.0442262" stroke-miterlimit="10"/>
  <path d="M94.9547 15.9218V8.57788H96.1326L99.795 14.2894H99.8374L99.795 12.8776V8.57788H100.764V15.9218H99.7526L95.9174 9.92844H95.875L95.9174 11.3464V15.9218H94.9547Z" fill="black" stroke="black" stroke-width="0.0442262" stroke-miterlimit="10"/>
  <path d="M85.6055 26.6468C82.6545 26.6468 80.2437 28.8364 80.2437 31.8576C80.2437 34.8543 82.6545 37.0669 85.6055 37.0669C88.5627 37.0669 90.9735 34.8543 90.9735 31.8576C90.9735 28.8364 88.5627 26.6468 85.6055 26.6468ZM85.6055 35.015C83.9863 35.015 82.5932 33.7119 82.5932 31.8576C82.5932 29.9788 83.9863 28.6986 85.6055 28.6986C87.2247 28.6986 88.624 29.9788 88.624 31.8576C88.624 33.7119 87.2247 35.015 85.6055 35.015ZM73.9067 26.6468C70.9494 26.6468 68.545 28.8364 68.545 31.8576C68.545 34.8543 70.9494 37.0669 73.9067 37.0669C76.8624 37.0669 79.2685 34.8543 79.2685 31.8576C79.2685 28.8364 76.8624 26.6468 73.9067 26.6468ZM73.9067 35.015C72.286 35.015 70.8882 33.7119 70.8882 31.8576C70.8882 29.9788 72.286 28.6986 73.9067 28.6986C75.5259 28.6986 76.919 29.9788 76.919 31.8576C76.919 33.7119 75.5259 35.015 73.9067 35.015ZM59.9857 28.2438V30.458H65.4087C65.2501 31.6953 64.826 32.6048 64.1758 33.2388C63.3843 34.0044 62.1514 34.8542 59.9857 34.8542C56.6484 34.8542 54.035 32.2282 54.035 28.9743C54.035 25.7203 56.6484 23.0943 59.9857 23.0943C61.7902 23.0943 63.1032 23.7818 64.0722 24.673L65.6725 23.1126C64.3172 21.8509 62.5142 20.8816 59.9857 20.8816C55.4092 20.8816 51.563 24.5122 51.563 28.9743C51.563 33.4363 55.4092 37.0669 59.9857 37.0669C62.4593 37.0669 64.3172 36.2768 65.7778 34.7945C67.2745 33.3352 67.7409 31.2834 67.7409 29.6266C67.7409 29.1121 67.6969 28.6389 67.6184 28.2438H59.9857ZM116.911 29.9604C116.469 28.7951 115.108 26.6468 112.334 26.6468C109.586 26.6468 107.297 28.7583 107.297 31.8576C107.297 34.7762 109.562 37.0669 112.598 37.0669C115.053 37.0669 116.469 35.6076 117.052 34.7578L115.23 33.5741C114.622 34.4408 113.795 35.015 112.598 35.015C111.409 35.015 110.556 34.4837 110.01 33.4363L117.157 30.553L116.911 29.9604ZM109.623 31.6953C109.562 29.6863 111.224 28.6573 112.414 28.6573C113.347 28.6573 114.139 29.1121 114.402 29.7628L109.623 31.6953ZM103.814 36.7499H106.163V21.4374H103.814V36.7499ZM99.9662 27.8074H99.8877C99.36 27.198 98.3533 26.6468 97.0781 26.6468C94.4019 26.6468 91.9551 28.9375 91.9551 31.8744C91.9551 34.7945 94.4019 37.0669 97.0781 37.0669C98.3533 37.0669 99.36 36.5111 99.8877 35.8832H99.9662V36.6305C99.9662 38.6227 98.8747 39.693 97.1142 39.693C95.6787 39.693 94.7883 38.6824 94.4208 37.8325L92.3775 38.664C92.9665 40.0452 94.526 41.7449 97.1142 41.7449C99.8689 41.7449 102.193 40.1646 102.193 36.3197V26.9637H99.9662V27.8074ZM97.2791 35.015C95.6599 35.015 94.3045 33.6936 94.3045 31.8744C94.3045 30.0385 95.6599 28.6986 97.2791 28.6986C98.8747 28.6986 100.133 30.0385 100.133 31.8744C100.133 33.6936 98.8747 35.015 97.2791 35.015ZM127.91 21.4374H122.291V36.7499H124.634V30.948H127.91C130.513 30.948 133.065 29.1121 133.065 26.192C133.065 23.2734 130.506 21.4374 127.91 21.4374ZM127.972 28.8181H124.634V23.5674H127.972C129.721 23.5674 130.72 24.9838 130.72 26.192C130.72 27.3772 129.721 28.8181 127.972 28.8181ZM142.456 26.6177C140.763 26.6177 139.003 27.3465 138.279 28.962L140.358 29.8118C140.806 28.962 141.629 28.6864 142.499 28.6864C143.714 28.6864 144.947 29.3984 144.966 30.6556V30.8163C144.542 30.5775 143.634 30.2238 142.518 30.2238C140.278 30.2238 137.996 31.4258 137.996 33.6691C137.996 35.7209 139.831 37.0424 141.893 37.0424C143.469 37.0424 144.339 36.3488 144.886 35.5418H144.966V36.7254H147.229V30.8516C147.229 28.1367 145.15 26.6177 142.456 26.6177ZM142.174 35.0089C141.407 35.0089 140.339 34.6383 140.339 33.7119C140.339 32.5268 141.671 32.072 142.824 32.072C143.856 32.072 144.339 32.294 144.966 32.5865C144.782 34.0044 143.531 35.0089 142.174 35.0089ZM155.474 26.953L152.781 33.591H152.701L149.916 26.953H147.389L151.573 36.2293L149.186 41.3912H151.635L158.081 26.953H155.474ZM134.353 36.7499H136.702V21.4374H134.353V36.7499Z" fill="black"/>
  </svg>
