<svg xmlns="http://www.w3.org/2000/svg" viewBox="0 0 24 24"><path fill="#F47920" d="M20 6.6V5a2 2 0 0 0-2-2h-2.5l-1.72-1.375a2.85 2.85 0 0 0-3.561 0L8.5 3H6a2 2 0 0 0-2 2v1.6L1 9v12a2 2 0 0 0 2 2h18a2 2 0 0 0 2-2V9l-3-2.4z"/><g fill="#FFF"><path d="M1 9l20 14H3a2 2 0 0 1-2-2V9z" opacity=".2"/><path d="M12 16.7l9 6.3a2 2 0 0 0 2-2V9l-11 7.7z" opacity=".1"/><path d="M17 13c0-1.933-2.239-3.5-5-3.5S7 11.067 7 13c0 .076-.005.06-.01.194L12 16.7l5.008-3.496c.007-.075-.008-.128-.008-.204zm-2 .5h-.5v1h-1V13a.5.5 0 0 0-1 0c0 .827-.673 1.5-1.5 1.5-.651 0-1.2-.42-1.408-1H9v-1h.5v-1h1V13a.5.5 0 0 0 1 0c0-.827.673-1.5 1.5-1.5.651 0 1.2.42 1.408 1H15v1z" opacity=".4"/><path d="M15 3H9a5 5 0 0 1-5 5v3.1l2.99 2.094c-.008-.075.01-.118.01-.194 0-1.933 2.239-3.5 5-3.5s5 1.567 5 3.5c0 .076.015.129.008.204L20 11.1V8a5 5 0 0 1-5-5zm-3 5c-.551 0-1-.449-1-1s.449-1 1-1 1 .449 1 1-.449 1-1 1z" opacity=".3"/><circle cx="12" cy="7" r="1" opacity=".2"/><path d="M13 11.5c-.827 0-1.5.673-1.5 1.5a.5.5 0 0 1-1 0v-1.5h-1v1H9v1h.592c.207.58.757 1 1.408 1 .827 0 1.5-.673 1.5-1.5a.5.5 0 0 1 1 0v1.5h1v-1h.5v-1h-.592c-.207-.58-.757-1-1.408-1z" opacity=".2"/><path d="M4 5v3a5 5 0 005-5H6a2 2 0 00-2 2zM20 5v3a5 5 0 01-5-5h3a2 2 0 012 2z" opacity=".4"/></g></svg>