<svg width="17" height="16" viewBox="0 0 17 16" fill="none" xmlns="http://www.w3.org/2000/svg">
<path fill-rule="evenodd" clip-rule="evenodd" d="M8.79045 0.0253906L9.4336 1.12193L11.5488 4.7282L15.6577 5.6118L16.9163 5.88245L16.0552 6.83947L13.2565 9.94993L13.6796 14.099L13.8091 15.3698L12.6389 14.8577L8.79045 13.1736L4.94203 14.8577L3.77178 15.3698L3.90135 14.099L4.32438 9.94993L1.52565 6.83947L0.664551 5.88245L1.92317 5.6118L6.03214 4.7282L8.1473 1.12193L8.79045 0.0253906ZM6.50942 5.38822L2.92033 6.16003L2.07992 6.34075L2.6549 6.97976L5.09966 9.69684L4.72997 13.3227L4.64312 14.1746L5.4276 13.8313L8.79045 12.3597L12.1533 13.8313L12.9378 14.1746L12.8509 13.3227L12.4812 9.69684L14.926 6.97976L15.501 6.34075L14.6606 6.16003L11.0715 5.38822L9.22265 2.23604L8.79045 1.49916L8.35825 2.23604L6.50942 5.38822Z" fill="#909090"/>
</svg>
